<?xml version="1.0" standalone="no"?>
<svg xmlns:xlink="http://www.w3.org/1999/xlink" id="wave" style="transform:rotate(180deg); transition: 0.3s" viewBox="0 0 1440 470" version="1.1" xmlns="http://www.w3.org/2000/svg"><defs><linearGradient id="sw-gradient-0" x1="0" x2="0" y1="1" y2="0"><stop stop-color="rgba(0, 78, 146, 1)" offset="0%"/><stop stop-color="rgba(0, 4, 40, 1)" offset="100%"/></linearGradient></defs><path style="transform:translate(0, 0px); opacity:1" fill="url(#sw-gradient-0)" d="M0,0L21.8,70.5C43.6,141,87,282,131,282C174.5,282,218,141,262,101.8C305.5,63,349,125,393,172.3C436.4,219,480,251,524,219.3C567.3,188,611,94,655,117.5C698.2,141,742,282,785,305.5C829.1,329,873,235,916,211.5C960,188,1004,235,1047,250.7C1090.9,266,1135,251,1178,211.5C1221.8,172,1265,110,1309,117.5C1352.7,125,1396,204,1440,211.5C1483.6,219,1527,157,1571,125.3C1614.5,94,1658,94,1702,78.3C1745.5,63,1789,31,1833,15.7C1876.4,0,1920,0,1964,0C2007.3,0,2051,0,2095,54.8C2138.2,110,2182,219,2225,289.8C2269.1,360,2313,392,2356,360.3C2400,329,2444,235,2487,164.5C2530.9,94,2575,47,2618,39.2C2661.8,31,2705,63,2749,117.5C2792.7,172,2836,251,2880,274.2C2923.6,298,2967,266,3011,219.3C3054.5,172,3098,110,3120,78.3L3141.8,47L3141.8,470L3120,470C3098.2,470,3055,470,3011,470C2967.3,470,2924,470,2880,470C2836.4,470,2793,470,2749,470C2705.5,470,2662,470,2618,470C2574.5,470,2531,470,2487,470C2443.6,470,2400,470,2356,470C2312.7,470,2269,470,2225,470C2181.8,470,2138,470,2095,470C2050.9,470,2007,470,1964,470C1920,470,1876,470,1833,470C1789.1,470,1745,470,1702,470C1658.2,470,1615,470,1571,470C1527.3,470,1484,470,1440,470C1396.4,470,1353,470,1309,470C1265.5,470,1222,470,1178,470C1134.5,470,1091,470,1047,470C1003.6,470,960,470,916,470C872.7,470,829,470,785,470C741.8,470,698,470,655,470C610.9,470,567,470,524,470C480,470,436,470,393,470C349.1,470,305,470,262,470C218.2,470,175,470,131,470C87.3,470,44,470,22,470L0,470Z"/><defs><linearGradient id="sw-gradient-1" x1="0" x2="0" y1="1" y2="0"><stop stop-color="rgba(11.566, 29.805, 193.954, 1)" offset="0%"/><stop stop-color="rgba(0, 1.409, 14.088, 0.94)" offset="100%"/></linearGradient></defs><path style="transform:translate(0, 50px); opacity:0.9" fill="url(#sw-gradient-1)" d="M0,94L21.8,94C43.6,94,87,94,131,86.2C174.5,78,218,63,262,94C305.5,125,349,204,393,227.2C436.4,251,480,219,524,203.7C567.3,188,611,188,655,180.2C698.2,172,742,157,785,180.2C829.1,204,873,266,916,250.7C960,235,1004,141,1047,141C1090.9,141,1135,235,1178,274.2C1221.8,313,1265,298,1309,289.8C1352.7,282,1396,282,1440,266.3C1483.6,251,1527,219,1571,188C1614.5,157,1658,125,1702,133.2C1745.5,141,1789,188,1833,219.3C1876.4,251,1920,266,1964,289.8C2007.3,313,2051,345,2095,297.7C2138.2,251,2182,125,2225,125.3C2269.1,125,2313,251,2356,274.2C2400,298,2444,219,2487,219.3C2530.9,219,2575,298,2618,274.2C2661.8,251,2705,125,2749,133.2C2792.7,141,2836,282,2880,282C2923.6,282,2967,141,3011,78.3C3054.5,16,3098,31,3120,39.2L3141.8,47L3141.8,470L3120,470C3098.2,470,3055,470,3011,470C2967.3,470,2924,470,2880,470C2836.4,470,2793,470,2749,470C2705.5,470,2662,470,2618,470C2574.5,470,2531,470,2487,470C2443.6,470,2400,470,2356,470C2312.7,470,2269,470,2225,470C2181.8,470,2138,470,2095,470C2050.9,470,2007,470,1964,470C1920,470,1876,470,1833,470C1789.1,470,1745,470,1702,470C1658.2,470,1615,470,1571,470C1527.3,470,1484,470,1440,470C1396.4,470,1353,470,1309,470C1265.5,470,1222,470,1178,470C1134.5,470,1091,470,1047,470C1003.6,470,960,470,916,470C872.7,470,829,470,785,470C741.8,470,698,470,655,470C610.9,470,567,470,524,470C480,470,436,470,393,470C349.1,470,305,470,262,470C218.2,470,175,470,131,470C87.3,470,44,470,22,470L0,470Z"/><defs><linearGradient id="sw-gradient-2" x1="0" x2="0" y1="1" y2="0"><stop stop-color="rgba(0, 4, 40, 1)" offset="0%"/><stop stop-color="rgba(0, 78, 146, 1)" offset="100%"/></linearGradient></defs><path style="transform:translate(0, 100px); opacity:0.8" fill="url(#sw-gradient-2)" d="M0,235L21.8,258.5C43.6,282,87,329,131,352.5C174.5,376,218,376,262,336.8C305.5,298,349,219,393,195.8C436.4,172,480,204,524,250.7C567.3,298,611,360,655,391.7C698.2,423,742,423,785,423C829.1,423,873,423,916,376C960,329,1004,235,1047,235C1090.9,235,1135,329,1178,376C1221.8,423,1265,423,1309,407.3C1352.7,392,1396,360,1440,329C1483.6,298,1527,266,1571,282C1614.5,298,1658,360,1702,391.7C1745.5,423,1789,423,1833,368.2C1876.4,313,1920,204,1964,141C2007.3,78,2051,63,2095,62.7C2138.2,63,2182,78,2225,117.5C2269.1,157,2313,219,2356,266.3C2400,313,2444,345,2487,329C2530.9,313,2575,251,2618,235C2661.8,219,2705,251,2749,266.3C2792.7,282,2836,282,2880,258.5C2923.6,235,2967,188,3011,195.8C3054.5,204,3098,266,3120,297.7L3141.8,329L3141.8,470L3120,470C3098.2,470,3055,470,3011,470C2967.3,470,2924,470,2880,470C2836.4,470,2793,470,2749,470C2705.5,470,2662,470,2618,470C2574.5,470,2531,470,2487,470C2443.6,470,2400,470,2356,470C2312.7,470,2269,470,2225,470C2181.8,470,2138,470,2095,470C2050.9,470,2007,470,1964,470C1920,470,1876,470,1833,470C1789.1,470,1745,470,1702,470C1658.2,470,1615,470,1571,470C1527.3,470,1484,470,1440,470C1396.4,470,1353,470,1309,470C1265.5,470,1222,470,1178,470C1134.5,470,1091,470,1047,470C1003.6,470,960,470,916,470C872.7,470,829,470,785,470C741.8,470,698,470,655,470C610.9,470,567,470,524,470C480,470,436,470,393,470C349.1,470,305,470,262,470C218.2,470,175,470,131,470C87.3,470,44,470,22,470L0,470Z"/><defs><linearGradient id="sw-gradient-3" x1="0" x2="0" y1="1" y2="0"><stop stop-color="rgba(0, 4, 40, 1)" offset="0%"/><stop stop-color="rgba(0, 78, 146, 1)" offset="100%"/></linearGradient></defs><path style="transform:translate(0, 150px); opacity:0.7" fill="url(#sw-gradient-3)" d="M0,188L21.8,188C43.6,188,87,188,131,172.3C174.5,157,218,125,262,117.5C305.5,110,349,125,393,172.3C436.4,219,480,298,524,274.2C567.3,251,611,125,655,109.7C698.2,94,742,188,785,195.8C829.1,204,873,125,916,133.2C960,141,1004,235,1047,282C1090.9,329,1135,329,1178,274.2C1221.8,219,1265,110,1309,117.5C1352.7,125,1396,251,1440,289.8C1483.6,329,1527,282,1571,266.3C1614.5,251,1658,266,1702,289.8C1745.5,313,1789,345,1833,305.5C1876.4,266,1920,157,1964,125.3C2007.3,94,2051,141,2095,141C2138.2,141,2182,94,2225,70.5C2269.1,47,2313,47,2356,101.8C2400,157,2444,266,2487,266.3C2530.9,266,2575,157,2618,109.7C2661.8,63,2705,78,2749,117.5C2792.7,157,2836,219,2880,274.2C2923.6,329,2967,376,3011,344.7C3054.5,313,3098,204,3120,148.8L3141.8,94L3141.8,470L3120,470C3098.2,470,3055,470,3011,470C2967.3,470,2924,470,2880,470C2836.4,470,2793,470,2749,470C2705.5,470,2662,470,2618,470C2574.5,470,2531,470,2487,470C2443.6,470,2400,470,2356,470C2312.7,470,2269,470,2225,470C2181.8,470,2138,470,2095,470C2050.9,470,2007,470,1964,470C1920,470,1876,470,1833,470C1789.1,470,1745,470,1702,470C1658.2,470,1615,470,1571,470C1527.3,470,1484,470,1440,470C1396.4,470,1353,470,1309,470C1265.5,470,1222,470,1178,470C1134.5,470,1091,470,1047,470C1003.6,470,960,470,916,470C872.7,470,829,470,785,470C741.8,470,698,470,655,470C610.9,470,567,470,524,470C480,470,436,470,393,470C349.1,470,305,470,262,470C218.2,470,175,470,131,470C87.3,470,44,470,22,470L0,470Z"/></svg>